<svg xmlns="http://www.w3.org/2000/svg">
  <defs>
    <symbol id="accessories" viewBox="0 0 24 24">
      <ellipse fill="currentColor" cx="12" cy="6.7" rx="2.52" ry="2.59"/>
      <path fill="currentColor" d="m5.21 2.82 3.37 1.74s-.68.9-.68 2.07c0 1.16.68 2.07.68 2.07L5.5 10.12C3.3 11.14.6 10.4.17 8a9.8 9.8 0 0 1-.03-3.4c.41-2.28 3-2.85 5.07-1.78Zm13.58 0-3.37 1.74s.68.9.68 2.07c0 1.16-.68 2.07-.68 2.07l3.08 1.42c2.2 1.02 4.89.27 5.33-2.12a9.8 9.8 0 0 0 .03-3.4c-.41-2.28-3-2.85-5.07-1.78ZM8.76 22.99l1.62-12.36-1.08-.3-2.7 1.2-2.7 8.74 2.96-.7L8.76 23Zm6.48 0-1.62-12.36 1.08-.3 2.7 1.2 2.7 8.74-2.97-.7L15.24 23Z"/>
    </symbol>
    <symbol id="add" viewBox="0 0 24 24">
      <path fill="currentColor" d="M12 0C5.4 0 0 5.4 0 12s5.4 12 12 12 12-5.4 12-12S18.6 0 12 0zm0 22.5a10.5 10.5 0 1 1 0-21 10.5 10.5 0 0 1 0 21z"/>
      <path fill="currentColor" d="M11.3 16c0 .4.3.8.8.8.4 0 .8-.3.8-.8v-3.2H16c.4 0 .8-.3.8-.8 0-.4-.3-.8-.8-.8h-3.2V7.9c0-.4-.3-.8-.8-.8-.4 0-.8.3-.8.8v3.4H8c-.4 0-.8.3-.8.8 0 .4.3.8.8.8h3.4V16z"/>
    </symbol>
    <symbol id="addFilled" viewBox="0 0 24 24">
      <path fill="currentColor" d="M12 0C5.4 0 0 5.4 0 12s5.4 12 12 12 12-5.4 12-12S18.6 0 12 0zm4 12.8h-3.1V16c0 .5-.4.8-.8.8-.5 0-.8-.4-.8-.8h.1v-3.1H8c-.5 0-.8-.4-.8-.8 0-.5.4-.8.8-.8h3.2V7.9c0-.5.4-.8.8-.8.5 0 .8.4.8.8v3.3H16c.5 0 .8.4.8.8 0 .5-.4.8-.8.8z"/>
    </symbol>
    <symbol id="arrowDown" viewBox="0 0 24 24">
      <path fill="currentColor" d="m3.3 13.7 8 8a1 1 0 0 0 1.4 0l8-8a1 1 0 0 0-1.4-1.4L13 18.58V2.86c0-.47-.45-.86-1-.86s-1 .39-1 .86V18.6l-6.3-6.3a1 1 0 0 0-1.4 1.42Z"/>
    </symbol>
    <symbol id="arrowLeft" viewBox="0 0 24 24">
      <path fill="currentColor" d="m10.3 3.3-8 8a1 1 0 0 0 0 1.4l8 8a1 1 0 0 0 1.4-1.4L5.42 13h15.73c.47 0 .86-.45.86-1s-.39-1-.86-1H5.4l6.3-6.3a1 1 0 0 0-1.42-1.4Z"/>
    </symbol>
    <symbol id="arrowRight" viewBox="0 0 24 24">
      <path fill="currentColor" d="m13.7 20.7 8-8a1 1 0 0 0 0-1.4l-8-8a1 1 0 1 0-1.4 1.4l6.29 6.3H2.86c-.47 0-.86.45-.86 1s.39 1 .86 1H18.6l-6.3 6.3a1 1 0 0 0 1.42 1.4Z"/>
    </symbol>
    <symbol id="arrowUp" viewBox="0 0 24 24">
      <path fill="currentColor" d="m20.7 10.3-8-8a1 1 0 0 0-1.4 0l-8 8a1 1 0 1 0 1.4 1.4L11 5.42v15.73c0 .47.45.86 1 .86s1-.39 1-.86V5.4l6.3 6.3a1 1 0 0 0 1.4-1.42Z"/>
    </symbol>
    <symbol id="bagEmpty" viewBox="0 0 24 24">
      <path stroke="currentColor" stroke-width="2" d="M4.13 8.4A1.5 1.5 0 0 1 5.63 7h12.74c.79 0 1.44.6 1.5 1.4l.94 13a1.5 1.5 0 0 1-1.5 1.6H4.7a1.5 1.5 0 0 1-1.5-1.6l.94-13ZM16 5.18A4.1 4.1 0 0 0 12 1C9.8 1 8 2.87 8 5.18"/>
    </symbol>
    <symbol id="bagFilled" viewBox="0 0 24 24">
      <path fill="currentColor" stroke="currentColor" stroke-width="2" d="M5.04 7.99a1 1 0 0 1 1-.93h11.92a1 1 0 0 1 1 .93l.9 13a1 1 0 0 1-1 1.07H5.14a1 1 0 0 1-1-1.07l.9-13Z"/>
      <path stroke="currentColor" stroke-width="2" d="M16 5.06a4 4 0 0 0-8 0"/>
    </symbol>
    <symbol id="calendarAdded" viewBox="0 0 24 24">
      <path fill="currentColor" d="M18.86 2.85h2.57c1.42 0 2.57.96 2.57 2.14v16.87c0 1.18-1.15 2.14-2.57 2.14H2.57C1.15 24 0 23.04 0 21.86V5c0-1.2 1.15-2.15 2.57-2.15h2.57V.53c0-.29.3-.53.65-.53h2.14c.35 0 .64.24.64.53v2.32h6.86V.53c0-.29.29-.53.64-.53h2.14c.36 0 .65.24.65.53v2.32ZM2 21a1 1 0 0 0 1 1h18a1 1 0 0 0 1-1V7H2v14Zm15.23-9.32a1 1 0 1 0-1.46-1.36l-4.9 5.23-2.15-2.24a1 1 0 0 0-1.44 1.38l2.87 3a1 1 0 0 0 1.45 0l5.63-6Z"/>
    </symbol>
    <symbol id="calendarEmpty" viewBox="0 0 24 24">
      <path fill="currentColor" d="M21.43 2.85h-2.57V.53c0-.29-.3-.53-.65-.53h-2.14c-.35 0-.64.24-.64.53v2.32H8.57V.53c0-.29-.29-.53-.64-.53H5.79c-.36 0-.65.24-.65.53v2.32H2.57C1.15 2.85 0 3.81 0 4.99v16.87C0 23.04 1.15 24 2.57 24h18.86c1.42 0 2.57-.96 2.57-2.14V5c0-1.18-1.15-2.14-2.57-2.14ZM3 22a1 1 0 0 1-1-1V7h20v14a1 1 0 0 1-1 1H3Z"/>
    </symbol>
    <symbol id="call" viewBox="0 0 24 24">
      <path fill="currentColor" d="M4.51 4.26a1 1 0 0 0-1.41 0L.46 6.89a1 1 0 0 0-.29.66h-.1a16.82 16.82 0 0 0 4.69 11.61 15.96 15.96 0 0 0 5.18 3.56 15.6 15.6 0 0 0 6.12 1.25v-.07a1 1 0 0 0 .48-.26l2.73-2.74a1 1 0 0 0 0-1.41l-3.69-3.69a1 1 0 0 0-1.41 0l-2.67 2.67a11.55 11.55 0 0 1-3.62-2.52 11.9 11.9 0 0 1-2.49-3.81 1 1 0 0 0 .18-.14L8.2 9.36a1 1 0 0 0 0-1.41l-3.69-3.7Z"/>
      <path fill="currentColor" d="M12.16 12.43a.5.5 0 0 1-.4-.8l1.2-1.56a6.22 6.22 0 1 1 4.88 2.36h-5.68Zm2.02-1.5h3.65a4.72 4.72 0 1 0-3.7-1.8l.72.92-.67.88Z"/>
    </symbol>
    <symbol id="change" viewBox="0 0 24 24">
      <path fill="currentColor" d="m9 14 .7-3.5 7.9-8.02 2.92 2.92-8.02 7.9L9 14ZM22.77 2.05c.3.3.3.79 0 1.1l-1.42 1.42-2.92-2.92L19.86.23c.3-.3.79-.3 1.1 0l1.81 1.82ZM9.74 4H0v20h21V11.17c0-.83-.7-1.5-1.57-1.5-.87 0-1.58.67-1.58 1.5V21H3.15V7h6.6c.86 0 1.57-.67 1.57-1.5S10.62 4 9.74 4Z"/>
    </symbol>
    <symbol id="chat" viewBox="0 0 24 24">
      <path fill="currentColor" d="M22.3 12.1c1-1.3 1.7-2.9 1.7-4.6C24 3.3 20.6 0 16.3 0c-3.9 0-7.1 2.8-7.6 6.5-4.8.1-8.7 4-8.7 8.7 0 2 .7 3.9 1.9 5.4L.6 22.3c-.5.7-.1 1.7.8 1.7H9c5 0 9-3.9 9-8.8v-.3h4.6c.8 0 1.3-1 .8-1.6l-1.1-1.2zM5 16.9c-.7 0-1.3-.6-1.3-1.3 0-.7.6-1.3 1.3-1.3.7 0 1.3.6 1.3 1.3 0 .7-.6 1.3-1.3 1.3zm4 0c-.7 0-1.3-.6-1.3-1.3 0-.7.6-1.3 1.3-1.3s1.3.6 1.3 1.3c0 .7-.6 1.3-1.3 1.3zm3.9 0c-.7 0-1.3-.6-1.3-1.3 0-.7.6-1.3 1.3-1.3.7 0 1.3.6 1.3 1.3.1.7-.5 1.3-1.3 1.3zm4.8-3.5c-.8-3.6-3.8-6.3-7.5-6.8.4-2.8 3-5.1 6.1-5.1 3.5 0 6.2 2.7 6.2 6 0 1.4-.5 2.7-1.3 3.7l-.8.9 1.1 1.4h-3.8z"/>
    </symbol>
    <symbol id="checkmark" viewBox="0 0 24 24">
      <path fill="currentColor" d="M22.04 4.92c.6.57.62 1.52.04 2.12l-12.5 13a1.5 1.5 0 0 1-2.14.02l-5.5-5.5a1.5 1.5 0 0 1 2.12-2.12l4.42 4.42 11.44-11.9a1.5 1.5 0 0 1 2.12-.04Z"/>
    </symbol>
    <symbol id="chevronDown" viewBox="0 0 24 24">
      <path fill="currentColor" d="M12.94 17.62c-.52.5-1.36.5-1.88 0l-8.67-8.4a1.28 1.28 0 0 1 0-1.84c.52-.5 1.37-.5 1.89 0L12 14.86l7.72-7.48c.52-.5 1.37-.5 1.89 0 .52.5.52 1.33 0 1.84l-8.67 8.4Z"/>
    </symbol>
    <symbol id="chevronLeft" viewBox="0 0 24 24">
      <path fill="currentColor" d="M6.38 12.94c-.5-.52-.5-1.36 0-1.88l8.4-8.67c.5-.52 1.33-.52 1.84 0 .5.52.5 1.37 0 1.89L9.14 12l7.48 7.72c.5.52.5 1.37 0 1.89-.5.52-1.33.52-1.84 0l-8.4-8.67Z"/>
    </symbol>
    <symbol id="chevronRight" viewBox="0 0 24 24">
      <path fill="currentColor" d="M17.62 11.06c.5.52.5 1.36 0 1.88l-8.4 8.67c-.5.52-1.33.52-1.84 0-.5-.52-.5-1.37 0-1.89L14.86 12 7.38 4.28c-.5-.52-.5-1.37 0-1.89.5-.52 1.33-.52 1.84 0l8.4 8.67Z"/>
    </symbol>
    <symbol id="chevronUp" viewBox="0 0 24 24">
      <path fill="currentColor" d="M11.06 6.38c.52-.5 1.36-.5 1.88 0l8.67 8.4c.52.5.52 1.33 0 1.84-.52.5-1.37.5-1.89 0L12 9.14l-7.72 7.48c-.52.5-1.37.5-1.89 0a1.28 1.28 0 0 1 0-1.84l8.67-8.4Z"/>
    </symbol>
    <symbol id="close" viewBox="0 0 24 24">
      <path fill="currentColor" d="M20.85 4.56a1 1 0 0 0-1.41-1.41L12 10.59 4.56 3.15a1 1 0 0 0-1.41 1.41L10.59 12l-7.44 7.44a1 1 0 1 0 1.41 1.41L12 13.41l7.44 7.44a1 1 0 0 0 1.41-1.41L13.41 12l7.44-7.44Z"/>
    </symbol>
    <symbol id="collapse" viewBox="0 0 24 24">
      <rect fill="currentColor" x="2" y="11" width="20" height="2" rx="1"/>
    </symbol>
    <symbol id="customPackaging" viewBox="0 0 24 24">
      <path fill="currentColor" d="m17 19.59-1.09-1.09.8-.8a1 1 0 1 0-1.42-1.4l-.79.79L13.41 16 16 13.41 19.59 17 17 19.59ZM5.44 16.85l1.7 1.71-2.56.86.86-2.57ZM6.9 9.5l.8-.8a1 1 0 1 0-1.42-1.4l-.79.79L4.41 7 7 4.41 10.59 8 8 10.59 6.91 9.5Zm12.55-4.96a1.83 1.83 0 0 1 0 2.58L19 7.6 16.41 5l.47-.47a1.83 1.83 0 0 1 2.58 0ZM6.41 15 15 6.41 17.59 9 9 17.59 6.41 15Zm15.3 1.3L17.4 12l3.47-3.46a3.83 3.83 0 1 0-5.41-5.42L12 6.6 7.7 2.3a1 1 0 0 0-1.4 0l-4 4a1 1 0 0 0 0 1.42L6.58 12l-2.3 2.3a1 1 0 0 0-.24.38l-2 6a1 1 0 0 0 1.27 1.27l6-2a1 1 0 0 0 .39-.24L12 17.4l4.3 4.3a1 1 0 0 0 1.4 0l4-4a1 1 0 0 0 0-1.42Z"/>
    </symbol>
    <symbol id="ecoFriendly" viewBox="0 0 24 24">
      <path fill="currentColor" d="M13.77 1.16a44.7 44.7 0 0 1 6.8-.06l.78.06.39.7c.17.3.21.6.23.72a10.3 10.3 0 0 1-.04 1.57c-.08.8-.25 1.8-.49 2.89-.46 2.12-1.26 4.72-2.4 6.52-3.7 5.83-9.64 5.74-12.25 4.37-.16-.09-.3-.2-.42-.34a15.6 15.6 0 0 0-1.42 4.15 1.49 1.49 0 1 1-2.93-.47c.18-1.16.79-3.46 2.2-6-.4-.07-.78-.31-1.01-.7-.93-1.56-1.06-3.76-.54-5.8A9.72 9.72 0 0 1 6.66 3.1c1.8-1.2 4.6-1.72 7.1-1.94Zm-8.05 11.8a19.84 19.84 0 0 1 6.01-5.36 1.48 1.48 0 0 1 2.02.55 1.5 1.5 0 0 1-.54 2.05 16.96 16.96 0 0 0-5.4 4.94c.13.03.24.07.35.13 1.4.73 5.6 1.06 8.38-3.33.86-1.35 1.56-3.53 2-5.55.2-.9.34-1.73.42-2.37-1.4-.05-3.18-.03-4.93.12-2.48.22-4.6.7-5.73 1.46a6.73 6.73 0 0 0-2.76 3.93 5 5 0 0 0 .18 3.44Z"/>
    </symbol>
    <symbol id="edit" viewBox="0 0 24 24">
      <path fill="currentColor" d="m3 17-1 5 5-1L18.45 9.71 14.3 5.55 3 17ZM21.68 6.5a1.1 1.1 0 0 0 0-1.58l-2.6-2.6a1.1 1.1 0 0 0-1.57 0l-2.03 2.04 4.16 4.16 2.04-2.03Z"/>
    </symbol>
    <symbol id="expand" viewBox="0 0 24 24">
      <path fill="currentColor" d="M11 21a1 1 0 1 0 2 0v-8h8a1 1 0 1 0 0-2h-8V3a1 1 0 1 0-2 0v8H3a1 1 0 1 0 0 2h8v8Z"/>
    </symbol>
    <symbol id="external" viewBox="0 0 24 24">
      <path fill="currentColor" d="M0 5.1c0-.7.5-1.2 1.2-1.2H10c.7 0 1.2.5 1.2 1.2s-.5 1.2-1.2 1.2H2.4v15H18v-6.4c0-.7.5-1.2 1.2-1.2s1.2.5 1.2 1.2v7.6c0 .7-.5 1.2-1.2 1.2h-18c-.7 0-1.2-.5-1.2-1.2V5.1z" />
      <path fill="currentColor" d="M23.9 1c-.1-.3-.4-.5-.6-.6-.1-.1-.3-.1-.5-.1h-7.2c-.7 0-1.2.5-1.2 1.2s.5 1.2 1.2 1.2h4.3L7.5 15.3c-.5.5-.5 1.2 0 1.7s1.2.5 1.7 0L21.6 4.4v4.3c0 .7.5 1.2 1.2 1.2S24 9.4 24 8.7V1.5c0-.2 0-.3-.1-.5z" />
    </symbol>
    <symbol id="facebook" viewBox="0 0 24 24">
      <path fill="currentColor" d="M17.83 2h-2.95a4.96 4.96 0 0 0-4.93 5v3H7v4h2.95v8h3.94v-8h2.96l.98-4H13.9V7a1 1 0 0 1 .99-1h2.95V2Z"/>
    </symbol>
    <symbol id="filter" viewBox="0 0 24 24">
      <path fill="currentColor" d="M17 4.8V3c0-.6-.4-1-1-1s-1 .4-1 1v1.8c-1.7.4-3 2-3 3.9s1.3 3.4 3 3.9V21c0 .6.4 1 1 1s1-.4 1-1v-8.5c1.7-.4 3-2 3-3.9s-1.3-3.4-3-3.8zm-1 5.9a2 2 0 0 1-2-2c0-1.1.9-2 2-2s2 .9 2 2a2 2 0 0 1-2 2zm-7 .8V3c0-.6-.4-1-1-1s-1 .4-1 1v8.5c-1.7.4-3 2-3 3.9s1.3 3.4 3 3.9V21c0 .6.4 1 1 1s1-.4 1-1v-1.8a3.96 3.96 0 0 0 0-7.7zm-1 5.8a2 2 0 0 1-2-2c0-1.1.9-2 2-2s2 .9 2 2a2 2 0 0 1-2 2z"/>
    </symbol>
    <symbol id="flagAustria" viewBox="0 0 24 24">
      <path fill="#FF0005" d="M24 0H0v24h24V0Z"/>
      <path fill="#fff" d="M24 8H0v8h24V8Z"/>
    </symbol>
    <symbol id="flagBelgium" viewBox="0 0 24 24">
      <path fill="#151513" d="M24 0H0v24h24V0Z"/>
      <path fill="#FFDD1F" d="M16 0H8v24h8V0Z"/>
      <path fill="#FF0009" d="M24 0h-8v24h8V0Z"/>
    </symbol>
    <symbol id="flagDenmark" viewBox="0 0 24 24">
      <path fill="#ff0005" d="M0 0h24v24H0z"/>
      <path fill="#fff" d="M8.3 10.3V0H5v10.3H0v3.3h5V24h3.3V13.6H24v-3.3z"/>
    </symbol>
    <symbol id="flagFrance" viewBox="0 0 24 24">
      <path fill="#ED2939" d="M24 0H0v24h24V0Z"/>
      <path fill="#fff" d="M16 0H0v24h16V0Z"/>
      <path fill="#002395" d="M8 0H0v24h8V0Z"/>
    </symbol>
    <symbol id="flagGermany" viewBox="0 0 24 24">
      <path fill="#050807" d="M24 0H0v24h24V0Z"/>
      <path fill="#FF0005" d="M24 8H0v16h24V8Z"/>
      <path fill="#FFDC00" d="M24 16H0v8h24v-8Z"/>
    </symbol>
    <symbol id="flagIreland" viewBox="0 0 24 24">
      <path fill="#fff" d="M24 0H0v24h24V0Z"/>
      <path fill="#1BA600" d="M8 0H0v24h8V0Z"/>
      <path fill="#FF6A00" d="M24 0h-8v24h8V0Z"/>
    </symbol>
    <symbol id="flagItaly" viewBox="0 0 24 24">
      <path fill="#fff" d="M24 0H0v24h24V0Z"/>
      <path fill="#199900" d="M8 0H0v24h8V0Z"/>
      <path fill="#f00" d="M24 0h-8v24h8V0Z"/>
    </symbol>
    <symbol id="flagLuxembourg" viewBox="0 0 24 24">
      <path fill="#009dff" d="M0 16h24v8H0z"/>
      <path fill="#fff" d="M0 8h24v8H0z"/>
      <path fill="#ff1800" d="M0 0h24v8H0z"/>
    </symbol>
    <symbol id="flagNetherlands" viewBox="0 0 24 24">
      <path fill="#005FD9" d="M24 0H0v24h24V0Z"/>
      <path fill="#fff" d="M24 0H0v16h24V0Z"/>
      <path fill="#F20000" d="M24 0H0v8h24V0Z"/>
    </symbol>
    <symbol id="flagPoland" viewBox="0 0 24 24">
      <path fill="#fff" d="M0 0h24v12H0z"/>
      <path fill="#f00014" d="M0 12h24v12H0z"/>
    </symbol>
    <symbol id="flagSpain" viewBox="0 0 24 24">
      <path fill="#c60b1e" d="M0 18h24v6H0zM0 0h24v6H0z"/>
      <path fill="#ffc400" d="M0 6h24v12H0z"/>
    </symbol>
    <symbol id="flagSwitzerland" viewBox="0 0 24 24">
      <path fill="#D52B1E" d="M24 0H0v24h24V0Z"/>
      <path fill="#fff" d="M19.5 9.7h-15v4.6h15V9.7Z"/>
      <path fill="#fff" d="M14.3 4.5H9.7v15h4.6v-15Z"/>
    </symbol>
    <symbol id="flagUkraine" viewBox="0 0 24 24">
      <rect fill="#FFD700" y="12" width="24" height="12"/>
      <rect fill="#0057B8" width="24" height="12"/>
    </symbol>
    <symbol id="flagUnitedKingdom" viewBox="0 0 24 24">
      <path fill="#fff" d="M0 0h24v24H0z"/>
      <path fill="#0037a6" d="M0 3.2v5.1h5.4zm0 12.5V21l5.5-5.3zM15.2 24h6.5l-6.5-6.3zM8.8 0H2.2l6.6 6.4zm0 24v-6.2L2.3 24zm13-24h-6.6v6.3zM24 8.3V3.2l-5.4 5.1zm0 12.6v-5.2h-5.5z"/>
      <path fill="#f20000" d="M8.8 16.9v-1.2h-.6L0 23.6v.4h1.4zm6.4-8.6h.7L24 .5V0h-1.3l-7.5 7.2zm.6 7.4 8.2 7.8v-1.7l-6.4-6.1zM8.1 8.3 0 .6v1.7l6.2 6z"/>
      <path fill="#f20000" d="M24 9.8H13.9V0h-3.8v9.8H0v4.4h10.1V24h3.8v-9.8H24z"/>
    </symbol>
    <symbol id="flagUnitedStates" viewBox="0 0 24 24">
      <path fill="#f0f0f0" d="M0 0h24v24H0z"/>
      <path fill="#ff1612" d="M0 22.2h24V24H0zm0-3.7h24v1.9H0zm0-3.7h24v1.9H0zm12.2-3.7H24V13H12.2zm0-3.7H24v1.9H12.2zm0-3.7H24v1.9H12.2zm0-3.7H24v1.8H12.2z"/>
      <path fill="#0540a8" d="M0 0h12.2v13H0z"/>
      <path fill="#fbf9f8" d="M3 2.4h-.5l.4.3-.2.5.5-.3.4.3-.2-.5.5-.3h-.6l-.1-.6zm7.9 4-.2-.6-.1.6H10l.5.3-.2.5.4-.3.5.3-.2-.5.4-.3zm-8.1-.5.4-.3.4.3-.1-.5.4-.3h-.5l-.2-.6-.2.6h-.5l.4.3zM1.3 9.7l.4-.3.4.3-.1-.5.4-.3h-.5l-.2-.5-.2.5H1l.4.3zm-.1-7.8.5-.3.4.3-.2-.5.5-.3h-.6L1.7.5l-.2.6H1l.4.3zm.7 4.5-.2-.6-.2.6H1l.4.3-.1.5.4-.3.4.3-.1-.5.4-.3zm4.1-4h-.5l.4.3-.1.5.4-.3.4.3-.1-.5.4-.3h-.6l-.1-.6zm5.4 1.3h-.5l-.2-.6-.2.6H10l.4.3-.1.5.4-.3.4.3L11 4zM9 2.4h-.5l.4.3-.1.5.4-.3.4.3-.1-.5.4-.3h-.5l-.2-.6zM.7 10.9l-.2-.5.4-.3H.4l-.2-.5-.1.5H0v.7l.2-.2zm4.4-1.2L5 9.2l.4-.3h-.5l-.2-.5-.2.5H4l.4.3-.1.5.4-.3zm2.8-3.3-.2-.6-.1.6H7l.5.3-.2.5.4-.3.5.3-.2-.5.4-.3zm-3.6.8.4-.3.4.3-.1-.5.4-.3h-.5l-.2-.6-.1.6H4l.4.3zm-1.5 3.7.5-.3.4.3-.2-.5.5-.3h-.6l-.1-.5-.2.5h-.5l.4.3zm3-5 .4-.3.5.3-.2-.5.4-.3h-.5l-.2-.6-.1.6h-.6l.5.3zm-5.2 0-.1-.5.4-.3H.4l-.2-.6-.2.6v.6l.2-.1zm8.8 4.2-.1-.5-.2.5h-.5l.4.3-.2.5.5-.3.4.3-.2-.5.5-.3zm-1.3-.4L8 9.2l.4-.3h-.5l-.2-.5-.2.5H7l.4.3-.1.5.4-.3zm-1.7.4-.1-.5-.2.5h-.5l.4.3-.2.5.5-.3.4.3-.2-.5.5-.3zM9 7.6h-.5l.4.3-.1.5.4-.3.4.3-.1-.5.4-.3h-.5l-.2-.5zM.6 3.2l-.2-.5.5-.3H.3l-.1-.6-.2.6V3l.2-.1zm7.3 8.2-.1-.5-.2.5h-.5l.4.3-.2.5.5-.3.4.3-.2-.5.5-.3zm-3 0-.1-.5-.2.5h-.5l.4.3-.2.5.5-.3.4.3-.2-.5.5-.3zm-3 0-.1-.5-.2.5h-.5l.4.3-.2.5.5-.3.4.3-.2-.5.5-.3zm9 0-.1-.5-.2.5h-.5l.4.3-.2.5.5-.3.4.3-.2-.5.5-.3zM.6 8.4l-.1-.5.4-.3H.4l-.2-.5-.2.5v.6l.2-.1zm10.8.5h-.5l-.2-.5-.1.5H10l.4.3-.1.5.4-.3.4.3-.1-.5zM9.9 5.1h-.5l-.2-.6-.1.6h-.6l.5.3-.2.5.4-.3.5.3-.2-.5zM2.5 7.6l.4.3-.1.5.4-.3.4.3-.1-.5.4-.3h-.5l-.2-.5-.2.5zm4.8-5.7.4-.3.4.3-.1-.5.4-.3h-.5L7.7.5l-.2.6H7l.4.3zm3 0 .4-.3.4.3-.1-.5.4-.3h-.5l-.2-.6-.2.6H10l.4.3zm-6.1 0 .5-.3.4.3-.2-.5.5-.3h-.6L4.7.5l-.2.6H4l.4.3zm1.3 5.7.4.3-.1.5.4-.3.4.3-.1-.5.4-.3h-.5l-.2-.5-.2.5zm-.8-3.4.4.3-.2-.5.5-.3h-.6l-.1-.6-.2.6H4l.4.3-.2.5zm-3.5.3.5-.3.4.3-.2-.5.5-.3h-.6l-.1-.6-.2.6H1l.4.3zm6.1 0 .4-.3.4.3L8 4l.4-.3h-.5l-.2-.6-.2.6H7l.4.3z"/>
    </symbol>
    <symbol id="gift" viewBox="0 0 24 24">
      <path fill="currentColor" d="M16.2 7.1c2.2 0 3.6-2.3 2.7-4.3-1-2-3.6-2.3-5-.6L12 4.7l-1.9-2.4c-1.4-1.7-4-1.4-5 .6s.5 4.3 2.7 4.3H3V22h7.9V7.1h2.3V22H21V7.1h-4.8zm-8.4-2c-.8 0-1.2-.7-.9-1.4.3-.6 1.2-.7 1.6-.2l1.3 1.6h-2zm7.7-1.6c.5-.6 1.3-.5 1.6.2.3.7-.2 1.4-.9 1.4h-2.1l1.4-1.6z"/>
    </symbol>
    <symbol id="heartEmpty" viewBox="0 0 24 24">
      <path fill="currentColor" d="M1 9.67C.96 5.88 3.78 3 6.9 3c2.53 0 4.16 1.2 5.1 2.46A6.1 6.1 0 0 1 17.1 3c3.12 0 5.94 2.88 5.9 6.67-.04 3.84-2.96 8.35-10.54 12.22a1 1 0 0 1-.91 0C3.96 18.02 1.05 13.51 1 9.67Zm11 10.2c6.93-3.65 8.97-7.53 9-10.23C21.03 6.82 18.97 5 17.1 5a4.09 4.09 0 0 0-4.13 2.92 1 1 0 0 1-1.94 0A4.1 4.1 0 0 0 6.89 5C5.03 5 2.97 6.82 3 9.64c.03 2.7 2.07 6.58 9 10.23Z"/>
    </symbol>
    <symbol id="heartFilled" viewBox="0 0 24 24">
      <path fill="#D70100" d="M17.1 4A5.08 5.08 0 0 0 12 7.69 5.1 5.1 0 0 0 6.9 4C1.91 4-2.89 13.41 12 21c14.88-7.59 10.08-17 5.1-17Z"/>
      <path fill="currentColor" d="M1 9.67C.96 5.88 3.78 3 6.9 3c2.53 0 4.16 1.2 5.1 2.46A6.1 6.1 0 0 1 17.1 3c3.12 0 5.94 2.88 5.9 6.67-.04 3.84-2.96 8.35-10.54 12.22a1 1 0 0 1-.91 0C3.96 18.02 1.05 13.51 1 9.67Zm11 10.2c6.93-3.65 8.97-7.53 9-10.23C21.03 6.82 18.97 5 17.1 5a4.09 4.09 0 0 0-4.13 2.92 1 1 0 0 1-1.94 0A4.1 4.1 0 0 0 6.89 5C5.03 5 2.97 6.82 3 9.64c.03 2.7 2.07 6.58 9 10.23Z"/>
    </symbol>
    <symbol id="hide" viewBox="0 0 24 24">
      <path fill="currentColor" d="M12 5.5c2 0 3.9.6 5.6 1.7 1.7 1.1 3 2.6 3.8 4.4-.8 1.8-2.1 3.4-3.8 4.4S14 17.7 12 17.7s-3.9-.6-5.6-1.7c-1.7-1.1-3-2.6-3.8-4.4.8-1.8 2.1-3.3 3.8-4.4S10 5.5 12 5.5zm0-2.4a12.65 12.65 0 0 0-12 8.5c.9 2.5 2.5 4.6 4.6 6.2 2.1 1.5 4.7 2.3 7.4 2.3 2.6 0 5.2-.8 7.4-2.3s3.8-3.7 4.6-6.2c-.9-2.5-2.5-4.6-4.7-6.2S14.6 3.1 12 3.1z"/>
      <path fill="currentColor" d="M14.7 10.5c-.4 0-.8-.2-1.1-.5-.3-.3-.5-.7-.5-1.1 0-.2.1-.5.2-.7.1-.2.3-.4.4-.5a4.2 4.2 0 0 0-4.1.3c-.7.5-1.2 1.2-1.5 2-.3.8-.4 1.6-.2 2.5.1.8.5 1.5 1.1 2.1s1.4 1 2.2 1.2c.8.2 1.7.1 2.5-.2.8-.3 1.4-.9 1.9-1.6.5-.7.7-1.5.7-2.4 0-.6-.1-1.2-.3-1.7-.1.2-.3.3-.6.5-.3.1-.5.1-.7.1z"/>
      <path fill="currentColor" d="M20.4 21.2c-.2 0-.3 0-.5-.1-.1-.1-.3-.1-.4-.3L2.7 4.1c-.2-.3-.3-.6-.3-.9 0-.3.1-.6.4-.8.2-.3.5-.4.8-.4.3 0 .6.1.8.3l16.8 16.8c.2.2.3.4.3.6 0 .2 0 .5-.1.7-.1.2-.2.4-.4.5s-.4.3-.6.3z"/>
    </symbol>
    <symbol id="info" viewBox="0 0 24 24">
      <path fill="currentColor" d="M12 0C5.4 0 0 5.4 0 12s5.4 12 12 12 12-5.4 12-12S18.6 0 12 0zm0 22C6.5 22 2 17.5 2 12S6.5 2 12 2s10 4.5 10 10-4.5 10-10 10z"/>
      <path fill="currentColor" d="M10.9 14.2c0 .1.1.1.2.1h1.2v-.1c-.1-.2-.1-.4 0-.6.1-.2.3-.3.5-.4.2-.1.6-.3 1-.4.6-.1 1-.3 1.4-.4.4-.2.7-.4 1-.8.3-.3.4-.8.4-1.4 0-.7-.2-1.2-.6-1.7-.4-.5-.9-.8-1.6-1-.6-.3-1.5-.5-2.4-.5-1 0-1.8.1-2.4.4-.7.3-1.2.6-1.5 1.1-.3.4-.5 1-.5 1.5 0 .4.1.8.3 1.3v.1h1.8v-.1c-.1-.4-.1-.8 0-1.2.1-.3.4-.6.7-.8.3-.2.8-.3 1.3-.3.7 0 1.1.1 1.5.4.3.2.5.5.5.9 0 .3-.1.5-.2.6-.1.2-.3.3-.5.4-.2.1-.4.2-.7.3-.3.1-.6.2-.8.4-.2.1-.4.3-.6.5-.1.2-.2.5-.2.8 0 .3.1.6.2.9zm0 3.8c.2.1.5.2.8.2.3 0 .6-.1.8-.2.2-.1.4-.3.6-.5.1-.2.2-.5.2-.8s-.1-.5-.2-.8c-.1-.2-.3-.4-.6-.5-.2-.1-.5-.2-.8-.2-.3 0-.6.1-.8.2s-.4.3-.5.5c-.1.2-.2.5-.2.8s.1.5.2.8c.1.2.3.4.5.5z"/>
    </symbol>
    <symbol id="inspiration" viewBox="0 0 24 24">
      <path fill="currentColor" d="M12.4.97c-3.9 0-6.54 2.44-6.87 5.28-.33 2.9.55 4.6 1.63 6.25l.47.7c.99 1.43 2.05 2.98 2.35 5.26.07.51.47.87.9.87h1.47c.07-2.44.64-4.26 1.2-5.76l.3-.8c.2-.48.36-.9.5-1.34a5.76 5.76 0 0 0 .07-3.72.89.89 0 0 0-.25-.37.46.46 0 0 0-.3-.09c-.05 0-.14.02-.27.2-.14.19-.26.47-.37.83a8.2 8.2 0 0 0-.3 2.14.49.49 0 0 1-.97.08 9.4 9.4 0 0 0-.65-2.27 2.7 2.7 0 0 0-.52-.81c-.17-.16-.3-.2-.4-.17-.1.01-.18.06-.24.23a2.2 2.2 0 0 0-.1.85c0 .3.04.61.1.93.13.5.22.97.28 1.34a.49.49 0 0 1-.95.2c-.09-.36-.2-.83-.29-1.33a8.53 8.53 0 0 0-.23-.75 3.3 3.3 0 0 0-.4-.79c-.12-.15-.18-.17-.2-.17a.49.49 0 0 1 .01-.98c.36 0 .64.2.84.42l.04-.09c.16-.4.47-.73.98-.82.5-.09.92.13 1.23.43a3.64 3.64 0 0 1 .83 1.32V8c.13-.4.3-.8.53-1.12.23-.31.58-.6 1.05-.6.33 0 .63.1.88.3.25.18.43.44.56.74a6.7 6.7 0 0 1-.04 4.42c-.15.45-.33.92-.52 1.41l-.3.76a16.08 16.08 0 0 0-1.13 5.42h.37c.43 0 .82-.36.87-.85.25-2.5 1.2-3.95 2.1-5.3l.2-.31A9.07 9.07 0 0 0 18.6 7.3c0-3.08-2.42-6.33-6.2-6.33ZM4.56 6.14C4.97 2.74 8.08 0 12.39 0c4.42 0 7.18 3.78 7.18 7.3 0 2.98-.93 4.6-1.9 6.1l-.2.3c-.88 1.34-1.71 2.62-1.94 4.87-.05.49-.28.94-.62 1.26v2.88a1.3 1.3 0 0 1-1.3 1.29h-2.64a1.3 1.3 0 0 1-1.29-1.3v-2.86c-.36-.32-.6-.77-.66-1.25-.27-2.03-1.2-3.39-2.17-4.82l-.5-.74a9.4 9.4 0 0 1-1.78-6.89Z"/>
    </symbol>
    <symbol id="instagram" viewBox="0 0 24 24">
      <path fill="currentColor" d="M17.34 5.46a1.2 1.2 0 1 0 0 2.4 1.2 1.2 0 0 0 0-2.4Zm4.6 2.42a7.59 7.59 0 0 0-.46-2.43 4.94 4.94 0 0 0-1.16-1.77 4.7 4.7 0 0 0-1.77-1.15 7.3 7.3 0 0 0-2.43-.47C15.06 2 14.72 2 12 2s-3.06 0-4.12.06a7.3 7.3 0 0 0-2.43.47c-.67.25-1.27.64-1.77 1.15-.51.5-.9 1.1-1.15 1.77a7.3 7.3 0 0 0-.47 2.43C2 8.94 2 9.28 2 12s0 3.06.06 4.12c.02.83.18 1.65.47 2.43a4.7 4.7 0 0 0 1.15 1.77c.5.51 1.1.9 1.77 1.15.78.3 1.6.45 2.43.47C8.94 22 9.28 22 12 22s3.06 0 4.12-.06a7.3 7.3 0 0 0 2.43-.47 4.7 4.7 0 0 0 1.77-1.15 5 5 0 0 0 1.16-1.77c.29-.78.44-1.6.46-2.43 0-1.06.06-1.4.06-4.12s0-3.06-.06-4.12ZM20.14 16a5.6 5.6 0 0 1-.34 1.86c-.16.44-.42.83-.75 1.15a3.2 3.2 0 0 1-1.15.75 5.6 5.6 0 0 1-1.86.34 65 65 0 0 1-4 .06c-2.63 0-3 0-4-.06a5.73 5.73 0 0 1-1.94-.3 3.27 3.27 0 0 1-1.1-.75 3 3 0 0 1-.74-1.15 5.54 5.54 0 0 1-.4-1.9c0-1-.06-1.37-.06-4s0-3 .06-4c0-.65.12-1.3.35-1.9A3 3 0 0 1 5 5c.3-.34.68-.62 1.1-.8A5.73 5.73 0 0 1 8 3.86c1 0 1.37-.06 4-.06s3 0 4 .06c.63 0 1.26.12 1.86.34.45.17.86.44 1.19.8a3 3 0 0 1 .75 1.1c.22.6.34 1.25.34 1.9a65 65 0 0 1 .06 4 65 65 0 0 1-.06 4ZM12 6.87a5.13 5.13 0 1 0 .02 10.26A5.13 5.13 0 0 0 12 6.87Zm0 8.46a3.33 3.33 0 1 1 0-6.66 3.33 3.33 0 0 1 0 6.66Z"/>
    </symbol>
    <symbol id="location" viewBox="0 0 24 24">
      <path fill="currentColor" d="M11.18 22.56C5.12 13.5 4 12.58 4 9.25A8.13 8.13 0 0 1 12 1c4.42 0 8 3.7 8 8.25 0 3.33-1.12 4.26-7.18 13.3-.4.6-1.24.6-1.64 0Zm.82-9.87a3.39 3.39 0 0 0 3.33-3.44c0-1.9-1.49-3.44-3.33-3.44a3.39 3.39 0 0 0-3.33 3.44c0 1.9 1.49 3.44 3.33 3.44Z"/>
    </symbol>
    <symbol id="marker" viewBox="0 0 24 24">
    <path fill="currentColor" d="M11.1 23.5C4.5 13.6 3.3 12.6 3.3 9c0-5 3.9-9 8.7-9 4.8 0 8.7 4 8.7 9 0 3.6-1.2 4.6-7.8 14.5-.4.7-1.4.7-1.8 0zm.9-10.7c2 0 3.6-1.7 3.6-3.8S14 5.3 12 5.3 8.4 7 8.4 9s1.6 3.8 3.6 3.8z"/>
    </symbol>
    <symbol id="menu" viewBox="0 0 24 24">
      <path fill="currentColor" d="M1 4a1 1 0 0 0 0 2h22a1 1 0 1 0 0-2H1Zm-1 8a1 1 0 0 1 1-1h22a1 1 0 1 1 0 2H1a1 1 0 0 1-1-1Zm0 7a1 1 0 0 1 1-1h22a1 1 0 1 1 0 2H1a1 1 0 0 1-1-1Z"/>
    </symbol>
    <symbol id="mixYourFlavors" viewBox="0 0 24 24">
      <path fill="#FFD200" d="M7.97.68s5.79-.74 7.27 7.2c0 0 .75 3.96-1.08 8.01a4.73 4.73 0 0 1-6.4 2.62c-1.32-.69-3.61-2.73-4.53-7.6C2.3 6.04 2.78.96 7.97.68Z"/>
      <path fill="#D60000" d="M11.97 15s1.84-5.27 7.8-3.3c5.96 1.95 3.92 7.27 3.78 7.7-.14.43-1.84 5.56-7.6 3.74-5.78-1.82-4.55-6.38-3.98-8.14Z"/>
      <path fill="#0D73E0" d="M14.62 19.25a7.36 7.36 0 0 1-9.66 4.1 7.56 7.56 0 0 1-4.4-9.66l14.06 5.56Z"/>
      <path fill="#fff" d="m7.68 22.25.65-1.79s.37-.84-.74-1.26c-.68-.26-1-.04-1-.04s-.29-.76-1.24-.56l.07-.2-1.02-.38-.3.86s.2.09.1.36l-.52 1.45s-.03.2-.3.18l-.22.6 1.18.45.21-.6s-.21-.14-.14-.33l.55-1.51s.1-.31.51-.15c.42.16.37.4.31.55l-.82 2.28 1.09.41.22-.6s-.27-.12-.2-.32l.56-1.52s.1-.33.5-.17c.42.15.42.3.33.56l-.83 2.27.99.38.23-.63s-.24-.08-.17-.29"/>
      <path fill="#52210D" d="M14.7 18.96c-.67 1.72-4.35 1.89-8.23.37C2.59 17.81-.02 15.2.65 13.47c.66-1.72 4.34-1.88 8.22-.36 3.88 1.51 6.5 4.13 5.82 5.85Z"/>
      <path fill="#8F6138" d="M12.94 18.18c-.4 1.05-3.07.98-5.96-.15-2.88-1.13-4.9-2.9-4.49-3.95.4-1.05 3.07-.99 5.96.14 2.88 1.14 4.9 2.9 4.5 3.96Z"/>
      <path fill="#fff" d="M20.15 18.41v-1.9s.05-.92-1.1-.92c-.73 0-.95.31-.95.31s-.52-.6-1.33-.08v-.2H15.7v.9s.22.02.22.31v1.54s.04.2-.22.27v.64h1.24v-.64s-.24-.06-.24-.26v-1.6s-.02-.33.42-.33c.45 0 .47.24.47.4v2.44h1.15v-.65s-.28-.01-.28-.23V16.8s-.01-.35.41-.35c.43 0 .49.15.49.42v2.42h1.03v-.67s-.24 0-.24-.21"/>
      <path fill="#5A1F06" d="m11.49 9.34-.28-1.92s-.08-.94-1.3-.76c-.75.1-.93.46-.93.46s-.64-.54-1.41.11l-.03-.2-1.12.16.13.92s.23-.02.28.28l.22 1.54s.08.2-.19.31l.1.65 1.3-.18-.1-.64s-.26-.03-.3-.23l-.23-1.63s-.06-.32.4-.39c.47-.07.53.17.56.34l.35 2.45 1.2-.18-.09-.65s-.3.04-.33-.19L9.5 7.97s-.07-.35.38-.41c.45-.07.53.07.57.34l.36 2.44 1.07-.15-.1-.68s-.25.05-.28-.17"/>
    </symbol>
    <symbol id="mLetter" viewBox="0 0 24 24">
      <path fill="currentColor" d="M22.9 17.1V6.6c0-.3 0-.4-.1-.6-.3-1.9-1.9-3.3-5-3.3-1.6 0-3 .5-4.3 1.3-.7-.8-1.9-1.3-3.5-1.3s-3 .4-4.3 1.2V3H0v3c.9 0 1.3.5 1.3 1.3v10c0 .8-.4 1.3-1.3 1.3v2.8h7.2v-2.8c-.7 0-1.1-.5-1.1-1.3V8.1c0-1 .8-1.4 1.8-1.4s1.8.4 1.8 1.4v13.3h5.9v-2.8c-.7 0-1.1-.5-1.1-1.3V8.1c0-1 .8-1.4 1.8-1.4s1.8.4 1.8 1.4v13.3H24v-2.8c-.8-.1-1.1-.7-1.1-1.5z"/>
    </symbol>
    <symbol id="order" viewBox="0 0 24 24">
      <path fill="currentColor" d="M20 4h-2.5c-.4-.9-1.3-1.6-2.3-1.7C14.7 1 13.4.2 12 .2c-1.4 0-2.7.8-3.2 2.1C7.8 2.4 7 3 6.6 4H4c-.6 0-1 .4-1 1v18c0 .6.4 1 1 1h16c.6 0 1-.4 1-1V5c0-.6-.4-1-1-1zM7.9 5c0-.7.6-1.2 1.2-1.2h1l.1-.7c.1-.7.8-1.4 1.9-1.4s1.8.7 1.9 1.4v.7h1c.7 0 1.2.6 1.2 1.2v1.4H7.9V5zm3 13.2-3.7-3.3 1.3-1.5 2.3 2.1 4.6-4.2 1.3 1.5-5.8 5.4z"/>
    </symbol>
    <symbol id="pause" viewBox="0 0 24 24">
      <path fill="currentColor" d="M2.9 0h5.8v24H2.9zm12.5 0h5.8v24h-5.8z"/>
    </symbol>
    <symbol id="person" viewBox="0 0 24 24">
      <circle stroke="currentColor" stroke-width="2" cx="12" cy="12" r="11"/>
      <circle fill="currentColor" cx="12" cy="9" r="4"/>
      <path fill="currentColor" d="M4.06 21a8 8 0 0 1 15.88 0 11.95 11.95 0 0 1-15.88 0Z"/>
    </symbol>
    <symbol id="pinterest" viewBox="0 0 24 24">
      <path fill="currentColor" d="M22 12a10 10 0 0 1-12.96 9.55c.4-.66 1.02-1.75 1.24-2.62l.62-2.38c.33.62 1.28 1.15 2.3 1.15 3.01 0 5.18-2.77 5.18-6.22 0-3.3-2.7-5.77-6.16-5.77-4.32 0-6.61 2.9-6.61 6.05 0 1.47.78 3.3 2.03 3.87.19.1.29.05.33-.13l.28-1.13a.3.3 0 0 0-.07-.29c-.4-.5-.74-1.42-.74-2.28 0-2.2 1.67-4.34 4.52-4.34 2.46 0 4.18 1.67 4.18 4.07 0 2.7-1.37 4.58-3.15 4.58-.98 0-1.72-.81-1.48-1.8.28-1.2.83-2.48.83-3.34 0-.76-.41-1.4-1.27-1.4-1 0-1.8 1.03-1.8 2.42 0 .89.29 1.49.29 1.49l-1.17 4.96a9.9 9.9 0 0 0-.04 2.87A10 10 0 1 1 22 12Z"/>
    </symbol>
    <symbol id="play" viewBox="0 0 24 24">
      <path fill="currentColor" d="M24 12 3.2 24V0L24 12z"/>
    </symbol>
    <symbol id="remove" viewBox="0 0 24 24">
      <path fill="currentColor" d="M16.13 1.88V.75a.75.75 0 0 0-.75-.75h-6a.75.75 0 0 0-.76.75v1.13H3.75a.75.75 0 0 0-.75.75v2.25c0 .4.34.75.75.75H21c.41 0 .75-.34.75-.75V2.63a.75.75 0 0 0-.75-.75h-4.88ZM5.25 6.38a.75.75 0 0 0-.75.8L6 23.3c.03.4.36.7.75.7H18c.4 0 .72-.3.75-.7l1.87-16.12a.75.75 0 0 0-.75-.8H5.26Zm4.09 14.24h-.06a.75.75 0 0 1-.75-.69l-.72-9.36a.75.75 0 1 1 1.5-.12l.72 9.37a.75.75 0 0 1-.7.8Zm3.79-.75a.75.75 0 0 1-1.5 0V10.5a.75.75 0 0 1 1.5 0v9.37Zm2.93.07a.75.75 0 1 1-1.5-.14l.88-9.35a.75.75 0 1 1 1.5.14l-.88 9.35Z"/>
    </symbol>
    <symbol id="reset" viewBox="0 0 24 24">
      <path fill="currentColor" d="M12.96 3.1a8.77 8.77 0 0 1 9 8.57 8.81 8.81 0 0 1-8.36 9.23 8.53 8.53 0 0 1-4.5-.94 10.29 10.29 0 0 1-3.2-2.85 1 1 0 0 0-1.43-.17 1.07 1.07 0 0 0-.16 1.48 12.32 12.32 0 0 0 3.85 3.4c1.54.83 3.34 1.25 5.51 1.17 5.92-.22 10.54-5.33 10.32-11.4A10.84 10.84 0 0 0 12.9 1.01c-5.16.19-8.8 3.58-9.66 7.96L1.82 7.15a1 1 0 0 0-1.44-.16c-.44.37-.5 1.03-.15 1.48l3.3 4.19a1 1 0 0 0 1.5.1l3.84-3.73c.41-.4.43-1.06.04-1.48a1 1 0 0 0-1.44-.04L5.2 9.71c.54-3.58 3.43-6.45 7.76-6.6Z"/>
    </symbol>
    <symbol id="ruler" viewBox="0 0 24 24">
      <path fill="currentColor" d="M19 8.8H5c-.1 0-.3.1-.4.2 0 0-.1.2-.1.3v5.4c0 .1.1.3.2.4.1.1.2.2.4.2H19c.1 0 .3-.1.4-.2.1-.1.2-.2.2-.4V9.3c0-.1-.1-.3-.2-.4s-.3-.1-.4-.1zm-.6 5.3H5.6V9.9h2.1V12h1.1V9.9h2.7V12h1.1V9.9h2.7V12h1.1V9.9h2.1v4.2z"/>
    </symbol>
    <symbol id="save" viewBox="0 0 24 24">
      <path fill="currentColor" d="M1 11.94V4.2C1 2.25 2.25 1 4.2 1c4.87 0 8.74 0 13.6.02.3 0 .68.16.9.37a158.1 158.1 0 0 1 3.89 3.88c.22.23.4.63.4.96.02 4.84.01 8.68.01 13.52 0 2.01-1.23 3.25-3.22 3.25H4.22c-1.99 0-3.21-1.24-3.21-3.25L1 11.95Zm17.45 9.28c.77 0 1.08.06 1.8 0 .53-.04 1-.38 1-1.03 0-4.38-.05-8.3 0-12.68 0-.83-.22-1.43-.84-1.99-.98-.89-.88-.87-1.95-1.94-.03.42-.05.65-.05.87L18.4 7.2c-.01 1.31-.68 1.96-2 1.96-3.55 0-6.1-.04-9.64.02-1.08.02-2.07-.68-2.05-2.03v-3.6c0-.24-.03-.47-.04-.69-1.42-.22-1.88.17-1.88 1.52V19.6c0 .2-.02.4 0 .6.08.57.42.96.97 1 .91.06 1.82.02 2.78.02.02-.34.04-.6.04-.85v-3.54c.02-1.33.68-1.98 1.99-1.98h7.87c1.27 0 1.95.65 1.96 1.93.02 1.53 0 2.06 0 3.6 0 .25.03.51.05.84Zm-2.38-.04c.34 0 .62-.28.62-.62 0-1.5-.01-1.94.01-3.39 0-.5-.18-.63-.65-.63-2.72.02-4.43.02-7.15 0-.45 0-.6.16-.6.61.03 1.51.01 2.03.02 3.53 0 .28.22.5.49.5h7.26Zm.57-14.51V3.03a.25.25 0 0 0-.25-.24h-.51c-1.34.02-1.16-.21-1.18 1.19v.66a.8.8 0 0 1-.8.8h-1.97a.8.8 0 0 1-.8-.8V3.49a.64.64 0 0 0-.63-.65H7.07a.6.6 0 0 0-.6.6c0 1.43.03 1.83-.01 3.23-.02.64.18.81.81.8 3.2-.03 5.4-.01 8.6-.01.42 0 .77-.36.77-.78Z"/>
    </symbol>
    <symbol id="search" viewBox="0 0 24 24">
      <path fill="currentColor" d="m22.8 20.7-4.6-4.6c1.1-1.6 1.8-3.5 1.8-5.6C20 5.3 15.7 1 10.5 1S1 5.3 1 10.5 5.3 20 10.5 20c2.1 0 4-.7 5.6-1.8l4.6 4.6c.6.6 1.5.6 2.1 0s.6-1.5 0-2.1zM10.5 18C6.4 18 3 14.6 3 10.5S6.4 3 10.5 3 18 6.4 18 10.5 14.6 18 10.5 18z"/>
    </symbol>
    <symbol id="share" viewBox="0 0 24 24">
      <path fill="currentColor" d="M14.22 1.09a.96.96 0 0 1 1.08.19l8.38 8.1a1.08 1.08 0 0 1 .02 1.52l-8.38 8.64a.97.97 0 0 1-1.09.22 1.05 1.05 0 0 1-.61-.97v-3.33c-1.1.02-2.68.29-4.5 1-2.33.9-5 2.53-7.4 5.2a.97.97 0 0 1-1.09.27 1.05 1.05 0 0 1-.63-.98c0-1.49.34-3.72 1.2-5.97a13.72 13.72 0 0 1 4.46-6.23 14.76 14.76 0 0 1 7.96-2.87V2.05c0-.42.23-.8.6-.96Zm1.4 3.35v2.47c0 .58-.45 1.05-1 1.05-1 0-4.4 0-7.8 2.51a11.61 11.61 0 0 0-3.76 5.29 17.5 17.5 0 0 0-.73 2.44 20.96 20.96 0 0 1 6.1-3.72c2.58-1 4.9-1.26 6.33-1.05.5.07.86.52.86 1.04v1.82l5.93-6.12-5.93-5.73Z"/>
    </symbol>
    <symbol id="shipping" viewBox="0 0 24 24">
      <path fill="currentColor" d="M4.58 7.1H2.33a.59.59 0 0 0-.43.18.61.61 0 0 0-.17.44.61.61 0 0 0 .17.44.59.59 0 0 0 .43.17h2.25a.58.58 0 0 0 .43-.17.6.6 0 0 0 .17-.44.62.62 0 0 0-.17-.44.6.6 0 0 0-.43-.18Zm.6 3.26A.61.61 0 0 0 5 9.93a.59.59 0 0 0-.43-.18H.61a.59.59 0 0 0-.43.18.61.61 0 0 0-.18.43c0 .17.06.33.18.44a.6.6 0 0 0 .42.2h3.97a.59.59 0 0 0 .43-.19.61.61 0 0 0 .17-.44Zm-.6 2.04H2.33a.59.59 0 0 0-.43.18.62.62 0 0 0-.17.44.61.61 0 0 0 .17.44.59.59 0 0 0 .43.17h2.25a.58.58 0 0 0 .43-.17.6.6 0 0 0 .17-.44.63.63 0 0 0-.17-.44.6.6 0 0 0-.43-.18Zm19.09-2.22a3.3 3.3 0 0 0-1.06-1.9 3.17 3.17 0 0 0-1.98-.8h-2.96V2.64a.66.66 0 0 0-.2-.45.63.63 0 0 0-.44-.19H6.67a.62.62 0 0 0-.44.19.65.65 0 0 0-.19.45V16.3c0 .17.07.33.19.45.11.13.27.2.44.2h1.86a1.73 1.73 0 0 0 3.26 0h6.3a1.73 1.73 0 0 0 3.26 0h2.02a.62.62 0 0 0 .58-.4.67.67 0 0 0 .05-.26c0-1.7-.1-4.41-.33-6.1Zm-13.51 6.6c-.1 0-.2-.02-.28-.08a.5.5 0 0 1-.2-.52.4.4 0 0 1 .13-.26.5.5 0 0 1 .54-.1c.1.03.17.1.22.18a.52.52 0 0 1-.07.64.5.5 0 0 1-.34.15Zm5.44-1.12h-3.8a1.78 1.78 0 0 0-.64-.85 1.72 1.72 0 0 0-2.63.85H7.27V3.36h9.12v12.36l-.8-.06Zm4.11 1.13c-.1 0-.2-.03-.28-.08a.52.52 0 0 1-.08-.79.5.5 0 0 1 .55-.1c.09.03.17.1.22.18a.6.6 0 0 1 .08.29.5.5 0 0 1-.14.35c-.1.1-.22.15-.35.15Zm1.63-1.15a1.78 1.78 0 0 0-.63-.85 1.72 1.72 0 0 0-2.64.85h-.4V8.78h2.84c.48 0 .94.17 1.3.5.37.32.6.76.66 1.25.18 1.37.26 3.76.24 5.15l-1.37-.04Z"/>
    </symbol>
    <symbol id="show" viewBox="0 0 24 24">
      <path fill="currentColor" d="M12 5.44c1.99 0 3.93.6 5.6 1.7 1.67 1.1 3 2.66 3.82 4.5a10.46 10.46 0 0 1-3.81 4.5 10.2 10.2 0 0 1-11.22 0c-1.67-1.1-3-2.66-3.81-4.5a10.5 10.5 0 0 1 3.81-4.5 10.26 10.26 0 0 1 5.6-1.7ZM12 3c-2.63 0-5.2.84-7.35 2.38A12.94 12.94 0 0 0 0 11.64c.87 2.52 2.5 4.71 4.65 6.26a12.58 12.58 0 0 0 14.7 0A12.91 12.91 0 0 0 24 11.64a12.94 12.94 0 0 0-4.65-6.26A12.6 12.6 0 0 0 12 3Z"/>
      <path fill="currentColor" d="M14.65 10.56a1.6 1.6 0 0 1-1.12-.47c-.3-.3-.47-.72-.47-1.15a1.62 1.62 0 0 1 .62-1.22 4.1 4.1 0 0 0-1.68-.4 4.2 4.2 0 0 0-3.93 2.66A4.39 4.39 0 0 0 9 14.7a4.23 4.23 0 0 0 7.25-3.05c0-.59-.12-1.17-.35-1.71a1.58 1.58 0 0 1-1.25.63Z"/>
    </symbol>
    <symbol id="shuffle" viewBox="0 0 24 24">
      <path fill="currentColor" d="M16.5 7.87c-.57.27-1.07.66-1.47 1.15l-1.74 2.07-1.34-1.7 1.1-1.34.25-.32a6.38 6.38 0 0 1 5.02-2.42h1.57l-1.8-1.8L19.61 2 24 6.4l-4.4 4.37-1.5-1.51 1.8-1.8h-1.58c-.63 0-1.25.13-1.82.4Zm1.6 12.32 1.79-1.81h-1.57a6.4 6.4 0 0 1-5.02-2.41l-.26-.32L7.7 9.08a4.29 4.29 0 0 0-3.2-1.41H0V5.54h4.55a6.41 6.41 0 0 1 4.49 1.79l.28.3 5.72 7.05a4.27 4.27 0 0 0 3.28 1.57h1.58l-1.8-1.8 1.5-1.52 4.4 4.4-4.4 4.38-1.5-1.52ZM7.72 14.62a4.33 4.33 0 0 1-3.19 1.34H0v2.14h4.55c1.67 0 3.28-.63 4.49-1.78l.28-.31 1.4-1.72-1.35-1.7-1.64 2.03Z"/>
    </symbol>
    <symbol id="snowflake" viewBox="0 0 24 24">
      <path fill="currentColor" d="m21.63 16.65-1.84-1.08 1.6-.43c.4-.11.63-.52.52-.92l-.2-.73a.74.74 0 0 0-.9-.53l-3.73 1.02L13.7 12l3.37-1.98 3.74 1.02c.39.1.8-.13.9-.53l.2-.73a.75.75 0 0 0-.53-.92l-1.6-.43 1.84-1.08c.35-.2.47-.67.27-1.03l-.37-.65a.73.73 0 0 0-1-.27l-1.84 1.07.42-1.62a.75.75 0 0 0-.52-.92l-.7-.2c-.4-.1-.8.14-.91.54l-1 3.8-3.37 1.97V6.08l2.73-2.78a.76.76 0 0 0 0-1.06l-.52-.53a.73.73 0 0 0-1.04 0l-1.17 1.2V.74a.74.74 0 0 0-.73-.75h-.74c-.4 0-.73.34-.73.75V2.9L9.24 1.72a.73.73 0 0 0-1.04 0l-.54.53a.76.76 0 0 0 0 1.06l2.73 2.78v3.96L7.02 8.07l-1-3.8a.74.74 0 0 0-.9-.52l-.71.19c-.4.1-.63.52-.52.92l.42 1.62L2.48 5.4a.73.73 0 0 0-1.01.28l-.37.65c-.2.36-.09.82.27 1.03l1.84 1.08-1.6.42a.74.74 0 0 0-.52.92l.2.73c.1.4.5.64.9.53l3.73-1.02L9.3 12l-3.37 1.98-3.73-1.02c-.4-.1-.8.13-.9.53l-.2.73c-.1.4.13.8.52.92l1.6.43-1.84 1.08a.76.76 0 0 0-.27 1.03l.37.65c.2.36.65.48 1 .27l1.84-1.07-.42 1.62c-.1.4.12.81.52.92l.7.2c.4.1.8-.14.91-.54l1-3.8 3.37-1.97v3.96L7.66 20.7a.76.76 0 0 0 0 1.06l.52.53c.29.29.75.29 1.04 0l1.17-1.2v2.16c0 .41.33.75.73.75h.74c.4 0 .73-.34.73-.75v-2.16l1.17 1.19c.29.29.76.29 1.04 0l.52-.53a.76.76 0 0 0 0-1.06l-2.73-2.78v-3.96l3.37 1.98 1 3.8c.1.4.5.63.9.52l.72-.19c.39-.1.62-.52.52-.92l-.43-1.62 1.84 1.08c.35.2.8.08 1-.28l.37-.65a.73.73 0 0 0-.25-1.02Z"/>
    </symbol>
    <symbol id="subtract" viewBox="0 0 24 24">
      <path fill="currentColor" d="M12 0C5.4 0 0 5.4 0 12s5.4 12 12 12 12-5.4 12-12S18.6 0 12 0zm0 22.5a10.5 10.5 0 1 1 0-21 10.5 10.5 0 0 1 0 21z"/>
      <path fill="currentColor" d="M7.2 12.1c0-.4.3-.8.8-.8h8c.4 0 .8.3.8.8 0 .4-.3.8-.8.8H7.9c-.4-.1-.7-.4-.7-.8z"/>
    </symbol>
    <symbol id="subtractFilled" viewBox="0 0 24 24">
      <path fill="currentColor" d="M12 0C5.4 0 0 5.4 0 12s5.4 12 12 12 12-5.4 12-12S18.6 0 12 0zm4 12.9H7.9c-.4-.1-.7-.4-.7-.8s.3-.8.8-.8h8c.4 0 .8.3.8.8 0 .4-.3.8-.8.8z"/>
    </symbol>
    <symbol id="text" viewBox="0 0 24 24">
      <path fill="currentColor" d="M11.33 5.42a4.25 4.25 0 0 0-.85 8.41l.6.12v1.64c0 .22.27.33.43.17l1.85-1.84H18a4.25 4.25 0 1 0 0-8.5h-6.67ZM5.58 9.67a5.75 5.75 0 0 1 5.75-5.75H18a5.75 5.75 0 1 1 0 11.5h-4.02l-1.4 1.4a1.75 1.75 0 0 1-3-1.23v-.44a5.75 5.75 0 0 1-4-5.48Z"/>
      <path fill="currentColor" d="M3 0a2 2 0 0 0-2 2v20c0 1.1.9 2 2 2h12a2 2 0 0 0 2-2v-6.67h-1.33v3.34H2.33V3.33h13.34v1.34H17V2a2 2 0 0 0-2-2H3Zm3.58 21.33c0-.41.34-.75.75-.75h3.34a.75.75 0 0 1 0 1.5H7.33a.75.75 0 0 1-.75-.75Z"/>
    </symbol>
    <symbol id="thumbsDown" viewBox="0 0 24 24">
      <path fill="none" stroke="currentColor" d="m15.2 15.2-.2-.6h4.6c1 0 1.8-.9 1.8-1.8 0-.6-.2-1.2-.6-1.6l-.2-.2.1-.3c.3-.8.3-1.9-.3-2.6l-.2-.2.1-.2c.3-.8 0-1.9-.5-2.4l-.2-.2.1-.3c.1-.6.1-1-.2-1.3-.2-.5-.7-.7-1.5-.9-.8-.1-1.6-.1-2.5-.1h-.1c-1.8 0-3.2.6-4.5 1.2-.2.1-.6.3-1 .4-.4.2-.8.3-1.1.3v8.3c.8.8 1.4 1.6 1.9 2.4l.1.1c.5.7.9 1.4 1.5 1.9.7.7.9 1.7 1.1 2.5v.1c.1.4.2.9.4 1.3.1.2.2.4.3.5.1.1.1.1.2.1.4 0 1-.1 1.5-.4.4-.3.9-.9.9-2.3 0-.7-.2-1.3-.5-1.8-.1-.1-.1-.3-.2-.4-.1-.1-.1-.3-.2-.4-.4-.4-.5-.7-.6-1.1zM2.9 12.8H6c.2 0 .4-.2.4-.4V2.9c0-.2-.2-.4-.4-.4H2.9c-.2 0-.4.2-.4.4v9.4c0 .3.2.5.4.5z"/>
    </symbol>
    <symbol id="thumbsUp" viewBox="0 0 24 24">
      <path fill="currentColor" d="M6.1 10.8H2.9c-.5 0-.9.4-.9.9v9.4c0 .5.4.9.9.9H6c.6 0 1-.4 1-.9v-9.4c0-.5-.4-.9-.9-.9zm-1.6 9.6c-.5 0-.9-.4-.9-.9s.4-.9.9-.9.9.4.9.9-.4.9-.9.9zM17 5.2c0 1.7-1 2.6-1.3 3.7h4C21 8.9 22 10 22 11.1c0 .7-.3 1.5-.8 1.9.4.9.3 2.2-.4 3.1.3 1 0 2.3-.6 2.9.2.7.1 1.3-.2 1.7-.8 1.3-2.8 1.3-4.5 1.3h-.1c-1.9 0-3.4-.7-4.7-1.2-.6-.3-1.4-.6-2.1-.6-.3 0-.5-.2-.5-.5v-8.4c0-.1.1-.2.1-.3 1.5-1.5 2.2-3.1 3.5-4.4.6-.6.8-1.5 1-2.3.3-.8.7-2.3 1.5-2.3.9 0 2.8.3 2.8 3.2z"/>
    </symbol>
    <symbol id="twitter" viewBox="0 0 24 24">
      <path fill="currentColor" d="M22 4.01a9.75 9.75 0 0 1-2.85 1.45 3.96 3.96 0 0 0-4.53-1.18A4.25 4.25 0 0 0 12 8.3v.95a9.57 9.57 0 0 1-8.18-4.3S.18 13.49 8.36 17.28A10.27 10.27 0 0 1 2 19.17c8.18 4.74 18.18 0 18.18-10.9 0-.26-.02-.52-.07-.78A7.4 7.4 0 0 0 22 4Z"/>
    </symbol>
    <symbol id="upload" viewBox="0 0 24 24">
      <path fill="currentColor" d="M22.15 21.97v-4.22c0-.6.38-1.06.9-1.06.55 0 .95.44.95 1.06v5.13c0 .63-.41 1.12-1.02 1.12H1.04c-.5 0-.84-.22-.98-.66a1.23 1.23 0 0 1-.06-.38v-5.21c0-.56.34-1 .8-1.05.5-.06.91.25 1.02.79.02.1.02.22.02.32v3.98l.01.18h20.3ZM11.14 2.85l-.78.77c-.96.95-1.92 1.9-2.89 2.83a.85.85 0 0 1-.96.18c-.53-.24-.68-.9-.28-1.31.5-.52 1.03-1.02 1.55-1.53l2.82-2.76.78-.77a.86.86 0 0 1 1.23 0l2.83 2.76 2.3 2.27c.25.24.32.53.21.84-.1.3-.33.5-.67.56a.84.84 0 0 1-.77-.25l-1.34-1.32-2.24-2.2c-.02 0-.03-.02-.07-.05v9.36c0 .38-.29.7-.7.76-.44.07-.86-.16-.98-.53a.98.98 0 0 1-.03-.3v-9.3Z"/>
    </symbol>
    <symbol id="warning" viewBox="0 0 24 24">
      <path fill="currentColor" d="M12 0C5.4 0 0 5.4 0 12s5.4 12 12 12 12-5.4 12-12S18.6 0 12 0zm0 18.7c-1.1 0-1.9-.8-1.9-1.8S10.9 15 12 15c1.1 0 1.9.8 1.9 1.8 0 1.1-.8 1.9-1.9 1.9zm1.2-5c0 .1-.1.1-.1.1H11c-.1 0-.1 0-.1-.1l-.7-8.3c0-.1 0-.1.1-.1h3.5c.1 0 .1.1.1.1l-.7 8.3z" />
    </symbol>
    <symbol id="youtube" viewBox="0 0 24 24">
      <path fill="currentColor" d="M21.86 17.5a2.74 2.74 0 0 1-1.82 2.02C18.44 20 12 20 12 20s-6.43 0-8.04-.48a2.74 2.74 0 0 1-1.82-2.02c-.43-1.79-.43-5.52-.43-5.52s0-3.72.43-5.5a2.7 2.7 0 0 1 1.82-2C5.56 4 12 4 12 4s6.43 0 8.04.48c.88.26 1.58 1 1.82 2 .43 1.78.43 5.5.43 5.5s0 3.73-.43 5.52ZM9.7 8.57v6.86L15.43 12 9.71 8.57Z"/>
    </symbol>
  </defs>
</svg>
